<mxfile host="app.diagrams.net" agent="Mozilla/5.0 (Macintosh; Intel Mac OS X 10_15_7) AppleWebKit/537.36 (KHTML, like Gecko) Chrome/140.0.0.0 Safari/537.36" version="28.2.1">
  <diagram name="Mongo Collections" id="srjI_qCr4sX0Wf1FeJ5i">
    <mxGraphModel dx="1306" dy="836" grid="1" gridSize="10" guides="1" tooltips="1" connect="1" arrows="1" fold="1" page="1" pageScale="1" pageWidth="827" pageHeight="1169" math="0" shadow="0">
      <root>
        <mxCell id="0" />
        <mxCell id="1" parent="0" />
        <mxCell id="7ZMDrAOnLRnl1Z3LIGsg-1" value="&lt;b&gt;sessions&lt;/b&gt;&lt;br&gt;_id: ObjectId&lt;br&gt;userId: string&lt;br&gt;token: string&lt;br&gt;createdAt: date&lt;br&gt;expiresAt: date&lt;br&gt;metadata: {&lt;div&gt;&amp;nbsp; &amp;nbsp; ip: string&lt;/div&gt;&lt;div&gt;&amp;nbsp; &amp;nbsp; userAgent: string&lt;/div&gt;&lt;div&gt;}&lt;/div&gt;" style="shape=rectangle;whiteSpace=wrap;html=1;rounded=0;glass=0;fillColor=#dae8fc;strokeColor=#6c8ebf;shadow=0;align=left;verticalAlign=top;spacingTop=8;spacingLeft=8;spacingRight=8;spacingBottom=8;" vertex="1" parent="1">
          <mxGeometry x="80" y="80" width="320" height="170" as="geometry" />
        </mxCell>
        <mxCell id="7ZMDrAOnLRnl1Z3LIGsg-2" value="&lt;b&gt;users_cache&lt;/b&gt;&lt;br&gt;_id: ObjectId&lt;br&gt;userId: string&lt;br&gt;others: {&lt;br&gt;&amp;nbsp; &amp;nbsp;id: string&lt;br&gt;&amp;nbsp; &amp;nbsp;username: string&lt;br&gt;&amp;nbsp; &amp;nbsp;createdAt: date&lt;br&gt;} []&lt;br&gt;updatedAt: date" style="shape=rectangle;whiteSpace=wrap;html=1;rounded=0;glass=0;fillColor=#ffe6cc;strokeColor=#d79b00;shadow=0;align=left;verticalAlign=top;spacingTop=8;spacingLeft=8;spacingRight=8;spacingBottom=8;" vertex="1" parent="1">
          <mxGeometry x="80" y="270" width="320" height="160" as="geometry" />
        </mxCell>
        <mxCell id="7ZMDrAOnLRnl1Z3LIGsg-3" value="&lt;b&gt;tags_cache&lt;/b&gt;&lt;br&gt;_id: ObjectId&lt;br&gt;key: string&lt;div&gt;tags: {&lt;/div&gt;&lt;div&gt;&amp;nbsp; &amp;nbsp;id: string&lt;br&gt;&amp;nbsp; &amp;nbsp;name: string&lt;br&gt;&amp;nbsp; &amp;nbsp;createdAt: date&lt;/div&gt;&lt;div&gt;} []&lt;br&gt;updatedAt: date&lt;/div&gt;" style="shape=rectangle;whiteSpace=wrap;html=1;rounded=0;glass=0;fillColor=#e1d5e7;strokeColor=#9673a6;shadow=0;align=left;verticalAlign=top;spacingTop=8;spacingLeft=8;spacingRight=8;spacingBottom=8;" vertex="1" parent="1">
          <mxGeometry x="80" y="450" width="320" height="160" as="geometry" />
        </mxCell>
        <mxCell id="7ZMDrAOnLRnl1Z3LIGsg-4" value="&lt;b&gt;user_search_cache&lt;/b&gt;&lt;br&gt;_id: ObjectId&lt;br&gt;userId: string&lt;br&gt;key: string&lt;div&gt;filters: {&lt;br&gt;&amp;nbsp; &amp;nbsp; text: string&lt;br&gt;&amp;nbsp; &amp;nbsp; tags:&amp;nbsp;&lt;span style=&quot;background-color: transparent; color: light-dark(rgb(0, 0, 0), rgb(255, 255, 255));&quot;&gt;&amp;nbsp;&lt;/span&gt;&lt;span style=&quot;background-color: transparent; color: light-dark(rgb(0, 0, 0), rgb(255, 255, 255));&quot;&gt;{&lt;/span&gt;&lt;div&gt;&amp;nbsp; &amp;nbsp; &amp;nbsp; &amp;nbsp; id: string&lt;br&gt;&amp;nbsp; &amp;nbsp; &amp;nbsp; &amp;nbsp; name: string&lt;br&gt;&amp;nbsp; &amp;nbsp; &amp;nbsp; &amp;nbsp;createdAt: date&lt;/div&gt;&lt;div&gt;} []&lt;/div&gt;results: {&lt;/div&gt;&lt;div&gt;&amp;nbsp; &amp;nbsp; id: string&lt;br&gt;&amp;nbsp; &amp;nbsp; title: string&lt;br&gt;&amp;nbsp; &amp;nbsp; body: string&lt;br&gt;&amp;nbsp; &amp;nbsp; ownerId: string&lt;br&gt;&amp;nbsp; &amp;nbsp; sharedWith:&lt;span style=&quot;background-color: transparent; color: light-dark(rgb(0, 0, 0), rgb(255, 255, 255));&quot;&gt;&amp;nbsp;&lt;/span&gt;&lt;span style=&quot;background-color: transparent; color: light-dark(rgb(0, 0, 0), rgb(255, 255, 255));&quot;&gt;{&lt;/span&gt;&lt;div&gt;&amp;nbsp; &amp;nbsp; &amp;nbsp; &amp;nbsp; label: string&lt;br&gt;&amp;nbsp; &amp;nbsp; &amp;nbsp; &amp;nbsp; value: string&lt;br&gt;&lt;/div&gt;&lt;div&gt;&amp;nbsp; &amp;nbsp; } []&lt;/div&gt;&amp;nbsp; &amp;nbsp; tags:&amp;nbsp;&lt;span style=&quot;color: light-dark(rgb(0, 0, 0), rgb(255, 255, 255)); background-color: transparent;&quot;&gt;{&lt;/span&gt;&lt;div&gt;&amp;nbsp; &amp;nbsp; &amp;nbsp; &amp;nbsp; label: string&lt;br&gt;&amp;nbsp; &amp;nbsp; &amp;nbsp; &amp;nbsp; value: string&lt;br&gt;&lt;/div&gt;&lt;div&gt;&amp;nbsp; &amp;nbsp; } []&lt;/div&gt;&amp;nbsp; &amp;nbsp; createdAt: date&lt;br&gt;&amp;nbsp; &amp;nbsp; updatedAt: date&lt;/div&gt;&lt;div&gt;} []&lt;br&gt;lastUpdated: date&lt;/div&gt;" style="shape=rectangle;whiteSpace=wrap;html=1;rounded=0;glass=0;fillColor=#d5e8d4;strokeColor=#82b366;shadow=0;align=left;verticalAlign=top;spacingTop=8;spacingLeft=8;spacingRight=8;spacingBottom=8;" vertex="1" parent="1">
          <mxGeometry x="420" y="80" width="320" height="460" as="geometry" />
        </mxCell>
      </root>
    </mxGraphModel>
  </diagram>
</mxfile>
